<svg xmlns="http://www.w3.org/2000/svg" xmlns:xlink="http://www.w3.org/1999/xlink" width="1200" zoomAndPan="magnify" viewBox="0 0 900 225" height="300" preserveAspectRatio="xMidYMid meet" version="1.0"><defs><clipPath id="e0525730e6"><path d="M 560 108.226562 L 562 108.226562 L 562 109 L 560 109 Z M 560 108.226562 " clip-rule="nonzero"/></clipPath><clipPath id="fb3128b252"><path d="M 573 108.226562 L 574 108.226562 L 574 109 L 573 109 Z M 573 108.226562 " clip-rule="nonzero"/></clipPath><clipPath id="29e4412405"><path d="M 273.484375 108.226562 L 626.53125 108.226562 L 626.53125 116.460938 L 273.484375 116.460938 Z M 273.484375 108.226562 " clip-rule="nonzero"/></clipPath><clipPath id="244a784047"><path d="M 28.269531 95 L 869 95 L 869 139.105469 L 28.269531 139.105469 Z M 28.269531 95 " clip-rule="nonzero"/></clipPath></defs><path fill="#ffffff" d="M 276.929688 115.683594 L 277.816406 115.664062 C 277.738281 115.652344 277.492188 115.65625 276.929688 115.683594 " fill-opacity="1" fill-rule="nonzero"/><path fill="#ffffff" d="M 276.132812 115.519531 C 276.109375 115.519531 276.078125 115.519531 276.054688 115.519531 C 276.070312 115.527344 276.089844 115.523438 276.132812 115.519531 " fill-opacity="1" fill-rule="nonzero"/><g clip-path="url(#e0525730e6)"><path fill="#ffffff" d="M 560.246094 108.296875 C 560.578125 108.277344 560.855469 108.253906 561.011719 108.222656 C 560.539062 108.242188 560.324219 108.269531 560.246094 108.296875 " fill-opacity="1" fill-rule="nonzero"/></g><path fill="#ffffff" d="M 507.917969 112.632812 C 507.941406 112.613281 507.953125 112.597656 507.953125 112.582031 C 507.875 112.597656 507.851562 112.613281 507.917969 112.632812 " fill-opacity="1" fill-rule="nonzero"/><path fill="#ffffff" d="M 287.3125 115.441406 C 287.175781 115.4375 287.035156 115.4375 286.90625 115.433594 C 286.824219 115.476562 287.210938 115.46875 287.3125 115.441406 " fill-opacity="1" fill-rule="nonzero"/><g clip-path="url(#fb3128b252)"><path fill="#ffffff" d="M 573.785156 108.277344 C 573.832031 108.261719 573.871094 108.246094 573.890625 108.226562 C 573.832031 108.246094 573.804688 108.261719 573.785156 108.277344 " fill-opacity="1" fill-rule="nonzero"/></g><path fill="#ffffff" d="M 319.421875 115.761719 C 319.539062 115.75 319.671875 115.746094 319.796875 115.738281 C 319.664062 115.738281 319.53125 115.746094 319.421875 115.761719 " fill-opacity="1" fill-rule="nonzero"/><path fill="#ffffff" d="M 497.304688 109.179688 C 497.117188 109.203125 497.015625 109.226562 496.964844 109.246094 C 497.171875 109.230469 497.324219 109.210938 497.304688 109.179688 " fill-opacity="1" fill-rule="nonzero"/><g clip-path="url(#29e4412405)"><path fill="#ffffff" d="M 497.144531 109.675781 C 499.8125 109.492188 496.570312 109.402344 496.964844 109.246094 C 496.253906 109.296875 494.738281 109.292969 495.457031 109.394531 C 494.050781 109.117188 491.230469 109.628906 489.714844 109.414062 C 489.652344 109.445312 490.527344 109.527344 489.484375 109.621094 C 487.917969 109.675781 488.03125 109.53125 487.390625 109.480469 C 486.925781 109.574219 484.554688 109.671875 484.78125 109.628906 C 483.746094 109.71875 485.894531 109.902344 484.445312 110.054688 C 483.464844 110.273438 482.125 110.125 480.96875 110.195312 C 479.570312 110.078125 482.359375 110.078125 482.933594 110 L 478.992188 110.152344 C 477.832031 110.070312 479.507812 109.949219 480.671875 109.957031 C 479.097656 109.851562 477.074219 110 476.613281 110.171875 C 475.628906 110.152344 475.105469 110.199219 474.175781 110.144531 C 475.097656 110.039062 475.035156 109.75 476.480469 109.679688 C 478.863281 109.660156 475.621094 109.914062 477.648438 109.925781 L 477.820312 109.75 C 478.691406 109.832031 479.378906 109.695312 480.3125 109.667969 C 480.832031 109.703125 480.199219 109.730469 479.851562 109.761719 C 481.535156 109.722656 482.878906 109.792969 484.144531 109.574219 C 481.875 109.453125 478.457031 109.722656 477.464844 109.539062 L 472.949219 109.851562 C 472.949219 109.933594 474.523438 110.035156 473.246094 110.171875 C 472.71875 109.976562 471.386719 109.90625 469.640625 109.898438 C 470.289062 110.109375 466.859375 110.140625 467.738281 110.304688 C 468.546875 110.179688 468.957031 110.355469 469.074219 110.375 C 467.386719 110.414062 468.847656 110.578125 467.921875 110.605469 C 464.84375 110.605469 468.035156 110.464844 465.011719 110.433594 C 465.648438 110.324219 467.269531 110.078125 468.945312 109.957031 C 468.828125 109.863281 467.269531 110 466.5625 109.898438 C 467.554688 110 465.875 110.117188 466.6875 110.152344 C 464.253906 110.285156 461.414062 110.558594 458.457031 110.652344 C 458.914062 110.320312 463.441406 110.328125 462.5 109.957031 C 461.054688 110.027344 461.0625 110.1875 459.898438 110.183594 C 458.910156 110 456.476562 110.210938 454.5 110.25 L 455.375 110.332031 C 454.625 110.425781 453.234375 110.386719 452.359375 110.382812 L 452.585938 110.335938 L 451.726562 110.410156 C 451.589844 110.40625 451.558594 110.394531 451.5625 110.382812 C 450.617188 110.5 448.199219 110.441406 446.386719 110.527344 C 446.390625 110.683594 448.183594 110.503906 449.050781 110.507812 C 449.289062 110.542969 450.96875 110.582031 450.15625 110.703125 C 447.902344 110.742188 446.335938 110.957031 443.785156 110.992188 L 444.597656 111.027344 C 443.789062 111.152344 442.6875 111.113281 441.46875 111.136719 C 439.261719 111.0625 443.089844 110.890625 441.75 110.820312 C 442.613281 110.667969 444.128906 110.800781 444.355469 110.59375 L 442.960938 110.398438 C 441.800781 110.550781 440.515625 110.367188 439.703125 110.410156 L 440.578125 110.496094 C 440.410156 110.671875 439.59375 110.554688 439.1875 110.535156 L 439.777344 110.777344 C 441.050781 110.800781 441.917969 110.566406 442.847656 110.699219 C 440.589844 110.816406 441.113281 111.007812 438.390625 111.058594 C 438.265625 110.960938 438.914062 111.011719 439.195312 110.9375 C 438.265625 110.882812 437.289062 111.101562 435.78125 111.042969 C 436.640625 110.96875 438.035156 110.847656 436.929688 110.734375 L 436.121094 110.933594 C 435.425781 110.914062 435.710938 110.835938 435.425781 110.835938 C 434.433594 110.816406 435.65625 111.027344 434.089844 111.003906 C 433.859375 110.972656 433.335938 110.9375 433.566406 110.890625 C 431.769531 110.910156 432.703125 110.964844 431.023438 111.085938 C 432.527344 111.058594 432.589844 111.347656 431.027344 111.402344 C 428.824219 111.40625 427.324219 111.589844 425.804688 111.375 L 424.820312 111.515625 C 425.453125 111.324219 423.425781 111.472656 422.726562 111.453125 C 422.492188 111.261719 426.035156 111.40625 426.027344 111.089844 C 424.578125 111.082031 425.210938 110.972656 425.675781 110.882812 C 424.105469 110.9375 425.097656 111.117188 424.40625 111.257812 C 424.402344 111.175781 421.734375 111.273438 422.65625 111.085938 C 421.324219 111.097656 421.097656 111.304688 420.113281 111.28125 C 420.261719 111.199219 420.429688 111.097656 420.332031 111 C 420.21875 111.066406 418.957031 111.003906 418.710938 111.003906 C 418.941406 111.035156 418.253906 111.175781 419.410156 111.101562 C 419.125 111.261719 416.683594 111.152344 416.746094 111.28125 C 416.625 111.105469 414.25 111.28125 413.03125 111.226562 C 413.160156 111.644531 415.289062 111.03125 415.703125 111.371094 C 414.085938 111.539062 410.25 111.46875 407.640625 111.695312 C 405.382812 111.652344 407.640625 111.535156 407.175781 111.390625 C 409.257812 111.289062 409.785156 111.402344 411.582031 111.300781 C 409.605469 111.257812 406.363281 111.351562 404.914062 111.503906 C 402.765625 111.558594 402.519531 111.125 399.910156 111.273438 C 400.261719 111.402344 400.207031 111.433594 401.019531 111.46875 C 400.324219 111.527344 399.511719 111.492188 398.757812 111.503906 C 398.300781 111.597656 399.921875 111.589844 398.882812 111.679688 C 398.472656 111.664062 397.605469 111.65625 397.773438 111.5625 L 397.949219 111.550781 C 395.457031 111.710938 396.136719 111.25 394 111.542969 C 394.175781 111.609375 394.636719 111.515625 395.164062 111.550781 C 395.570312 111.648438 394.246094 111.816406 393.253906 111.875 C 393.429688 111.78125 392.382812 111.871094 391.6875 111.851562 C 391.21875 111.707031 393.429688 111.78125 393.773438 111.667969 L 391.855469 111.675781 L 392.261719 111.695312 L 390.179688 111.875 C 391.632812 111.800781 390.878906 112.054688 390.242188 112.082031 C 388.792969 112.074219 387.339844 112.066406 387.511719 111.890625 C 387.339844 112.066406 385.542969 112.089844 384.265625 112.148438 C 385.660156 112.1875 384.445312 112.289062 384.042969 112.351562 L 381.949219 112.214844 C 384.152344 112.128906 381.480469 112.070312 381.996094 111.945312 C 382.628906 111.753906 383.96875 111.824219 385.128906 111.832031 C 382.855469 111.550781 381.941406 112.054688 379.964844 111.933594 C 379.964844 111.855469 380.136719 111.757812 381.007812 111.761719 C 380.65625 111.714844 379.210938 111.945312 377.871094 111.875 C 378.226562 111.925781 378.980469 112.070312 377.652344 112.160156 L 375.90625 111.992188 C 373.871094 111.980469 375.214844 112.210938 373.539062 112.328125 L 374.640625 112.445312 C 374.472656 112.621094 372.378906 112.484375 372.328125 112.675781 C 373.367188 112.664062 373.949219 112.507812 375.042969 112.542969 C 375.460938 112.722656 373.65625 112.664062 373.027344 112.773438 C 370.761719 112.730469 371.226562 112.714844 369.539062 112.59375 C 369.472656 112.308594 372.3125 112.195312 371.949219 111.828125 C 369.75 111.910156 366.558594 112.054688 365.109375 111.96875 C 363.136719 112.082031 363.320312 112.308594 363.613281 112.46875 C 362.796875 112.511719 362.394531 112.492188 361.871094 112.460938 L 362.796875 112.351562 C 360.363281 112.484375 358.972656 112.605469 356.417969 112.636719 C 354.972656 112.710938 355.558594 112.875 355.90625 113.003906 L 354.339844 113.058594 L 354.582031 113.089844 C 354.234375 113.28125 352.839844 113.242188 351.796875 113.25 C 351.792969 113.171875 352.429688 113.144531 352.371094 113.097656 C 351.441406 113.042969 350.046875 113.085938 349.300781 113.175781 C 349.292969 113.097656 349.929688 112.90625 351.03125 112.945312 C 351.148438 112.960938 351.089844 112.992188 351.207031 113.011719 L 353.0625 112.875 C 350.917969 113.007812 349.632812 112.828125 349.6875 112.636719 C 347.542969 112.769531 351.433594 112.804688 348.882812 112.917969 C 345.511719 112.597656 342.503906 113.125 340.632812 112.621094 C 339.070312 112.753906 337.21875 112.96875 334.78125 113.019531 C 334.785156 113.179688 333.15625 113.109375 333.394531 113.300781 C 335.722656 113.472656 337.738281 112.921875 339.609375 113.1875 C 340.644531 113.097656 340.292969 112.96875 340.757812 112.875 C 341.679688 112.847656 342.554688 112.851562 342.675781 112.949219 C 340.53125 113.082031 342.105469 113.347656 339.378906 113.394531 C 339.730469 113.523438 341.9375 113.441406 342.921875 113.460938 C 342.632812 113.539062 342.929688 113.621094 343.566406 113.671875 C 342.871094 113.8125 341.3125 113.945312 340.503906 114.070312 C 340.789062 113.992188 340.261719 113.957031 340.496094 113.910156 L 337.660156 114.183594 C 336.785156 114.097656 336.546875 113.984375 337.015625 113.894531 C 335.441406 113.867188 332.785156 114.125 332.773438 113.886719 C 330.746094 113.957031 333.417969 114.019531 333.59375 114.082031 L 333.417969 114.097656 L 335.566406 114.042969 C 335.808594 114.316406 333.125 114.015625 332.785156 114.285156 C 332.457031 114.792969 329.761719 114.175781 328.261719 114.277344 L 329.992188 113.886719 L 328.480469 113.992188 C 329.347656 113.835938 329.34375 113.597656 330.671875 113.429688 C 328.585938 113.449219 325.621094 113.386719 324.285156 113.476562 C 323.761719 113.359375 323.527344 113.246094 323.757812 113.121094 C 321.671875 113.382812 320.503906 113.058594 318.703125 113.078125 C 316.796875 113.246094 320.625 113.234375 319.234375 113.433594 C 318.65625 113.351562 317.613281 113.441406 317.09375 113.484375 C 317.667969 113.410156 319.703125 113.5 321.101562 113.539062 C 320.054688 113.550781 320.171875 113.726562 319.882812 113.804688 L 321.628906 113.8125 C 321.519531 114.035156 319.484375 113.863281 318.675781 113.988281 C 319.1875 113.785156 318.902344 113.78125 319.414062 113.578125 C 317.910156 113.679688 315.648438 113.714844 314.367188 113.613281 C 313.609375 113.546875 315 113.507812 315.40625 113.445312 C 315.054688 113.316406 313.902344 113.550781 313.605469 113.386719 C 313.835938 113.261719 314.53125 113.359375 315.054688 113.316406 L 310.644531 113.324219 C 310.644531 113.246094 311.742188 113.203125 312.4375 113.222656 C 311.101562 113.152344 310.121094 113.210938 308.558594 113.503906 C 307.050781 113.449219 305.308594 113.359375 305.820312 113.234375 C 305.128906 113.296875 305.59375 113.363281 305.601562 113.441406 C 303.566406 113.429688 303.34375 113.714844 302.125 113.742188 L 303.054688 113.875 C 301.082031 113.753906 302.597656 114.128906 300.859375 114.039062 C 301.136719 113.878906 301.023438 113.703125 300.726562 113.542969 C 300.441406 113.699219 299.332031 113.585938 298.582031 113.597656 C 299.050781 113.742188 296.960938 113.761719 298.183594 113.894531 C 296.441406 114.046875 295.628906 113.851562 294.355469 114.070312 C 295.167969 114.105469 292.851562 114.253906 293.554688 114.351562 C 291.867188 114.390625 290.707031 114.222656 291.160156 114.050781 C 291.746094 114.054688 292.679688 114.105469 292.609375 113.980469 L 289.539062 114.058594 C 288.777344 113.992188 287.796875 113.96875 287.671875 113.792969 C 286.691406 114.011719 284.769531 113.699219 284.019531 113.949219 C 285.058594 113.78125 285.882812 113.976562 286.28125 113.996094 L 285.804688 114.035156 C 285.875 114.035156 285.953125 114.035156 286.054688 114.039062 L 284.734375 114.367188 C 286.011719 114.46875 284.957031 114.164062 286.757812 114.140625 C 288.328125 114.402344 283.230469 114.632812 284.859375 114.785156 C 286.191406 114.855469 285.953125 114.582031 287.050781 114.460938 L 286.765625 114.457031 L 289.257812 114.296875 C 289.375 114.390625 288.621094 114.484375 288.621094 114.484375 C 291.640625 114.4375 292.109375 114.582031 295.359375 114.566406 C 295.125 114.535156 294.480469 114.242188 295.929688 114.171875 C 296.96875 114.082031 297.09375 114.257812 297.960938 114.261719 C 297.441406 114.308594 296.980469 114.480469 296.285156 114.382812 L 296.34375 114.589844 C 293.914062 114.878906 295.195312 115.0625 291.890625 115.1875 C 291.742188 115.34375 289.347656 115.460938 287.550781 115.445312 L 288.421875 115.566406 C 286.574219 115.859375 288.070312 115.359375 285.695312 115.617188 C 284.703125 115.359375 282.890625 115.0625 284.222656 114.8125 C 282.535156 114.773438 281.960938 114.929688 280.449219 114.953125 C 279.515625 114.738281 280.90625 114.699219 280.730469 114.472656 C 279.625 114.515625 278.234375 114.636719 279.058594 114.753906 L 276.960938 114.695312 C 276.902344 114.648438 277.652344 114.636719 277.949219 114.636719 C 277.132812 114.601562 275.570312 114.734375 275.109375 114.828125 C 275.28125 114.816406 275.808594 114.769531 276.035156 114.800781 C 275.167969 114.875 273.605469 115.011719 273.492188 115.074219 C 274.765625 114.941406 274.882812 115.195312 276.214844 115.027344 C 276.105469 115.089844 275.875 115.214844 275.179688 115.195312 C 276.285156 115.3125 277.386719 115.273438 277.851562 115.417969 C 276.917969 115.316406 276.324219 115.492188 276.132812 115.519531 C 276.964844 115.550781 278.628906 115.484375 279.1875 115.410156 C 279.3125 115.664062 282.433594 115.3125 281.339844 115.59375 C 281.511719 115.5 282.730469 115.476562 283.375 115.523438 C 283.316406 115.636719 281.695312 115.722656 281.003906 115.863281 C 277.753906 116.039062 281.058594 115.675781 280.296875 115.605469 L 277.816406 115.664062 C 278.070312 115.695312 276.828125 115.859375 278.445312 115.816406 C 277.699219 115.992188 276.132812 116.125 274.855469 116.023438 C 274.566406 116.101562 275.496094 116.074219 275.785156 116.074219 C 275.496094 116.15625 273.9375 116.449219 275.96875 116.460938 C 275.386719 116.457031 276.953125 116.320312 275.90625 116.253906 C 276.71875 116.210938 278.925781 116.285156 278.054688 116.4375 C 279.042969 116.378906 280.894531 116.246094 281.707031 116.203125 C 281.941406 116.316406 281.011719 116.261719 280.605469 116.324219 L 283.453125 116.210938 L 282.636719 116.097656 C 284.722656 116.15625 286.050781 115.828125 287.730469 115.707031 C 287.503906 115.914062 286.109375 115.953125 285.011719 116.078125 C 286.066406 116.304688 285.703125 115.9375 287.445312 115.945312 C 287.679688 115.980469 287.742188 116.027344 287.628906 116.089844 L 289.011719 115.890625 C 289.417969 115.90625 289.191406 115.953125 289.011719 115.96875 C 291.390625 115.710938 288.949219 115.683594 292.136719 115.539062 C 290.21875 115.464844 290.511719 115.707031 288.894531 115.714844 C 287.957031 115.582031 290.738281 115.421875 291.203125 115.328125 C 292.769531 115.351562 292.953125 115.65625 294.921875 115.460938 C 293.53125 115.578125 294.867188 115.648438 292.894531 115.6875 C 291.796875 115.808594 293.480469 115.769531 293.710938 115.882812 C 294.230469 115.835938 293.359375 115.675781 294.8125 115.679688 L 294.753906 115.710938 L 297.125 115.453125 C 299.335938 115.53125 302.105469 115.128906 303.625 115.34375 L 303.269531 115.136719 C 304.65625 115.09375 306.632812 115.058594 307.617188 115 C 307.390625 115.125 306.460938 115.152344 305.476562 115.210938 C 307.976562 115.207031 310.171875 115.042969 311.851562 114.84375 C 310.625 114.710938 310.453125 114.726562 309.289062 114.640625 C 310.902344 114.3125 311.210938 114.796875 313.296875 114.613281 C 313.359375 114.820312 312.664062 114.804688 313.1875 114.996094 C 314.054688 114.839844 315.507812 114.847656 316.488281 114.710938 C 317.019531 114.902344 316.097656 115.089844 313.953125 115.144531 C 312.320312 114.992188 310.53125 115.332031 309.191406 115.183594 L 310.007812 115.296875 C 308.378906 115.386719 307.394531 115.363281 306.007812 115.484375 L 306.0625 115.453125 L 305.371094 115.671875 L 306.125 115.660156 C 305.605469 115.785156 304.046875 116 303.582031 116.015625 C 305.90625 115.945312 306.066406 115.613281 307.164062 115.410156 C 309.253906 115.390625 310.078125 115.746094 311.464844 115.542969 C 311.582031 115.640625 312.75 115.726562 311.820312 115.835938 C 310.664062 115.90625 309.847656 115.792969 309.734375 115.9375 C 310.953125 115.910156 310.492188 116.003906 312.34375 115.949219 C 312.691406 115.757812 314.078125 115.558594 315.402344 115.390625 C 316.796875 115.269531 318.59375 115.246094 319.703125 115.285156 C 318.308594 115.328125 316.917969 115.527344 317.273438 115.65625 C 318.082031 115.453125 320.003906 115.765625 319.589844 115.507812 C 321.210938 115.5 323.941406 115.453125 324.121094 115.675781 C 322.589844 115.785156 321.097656 115.667969 319.796875 115.738281 C 320.15625 115.738281 320.507812 115.789062 320.296875 115.847656 L 318.378906 115.851562 C 319.832031 115.941406 319.546875 116.019531 321.402344 115.964844 C 321.285156 115.949219 321.050781 115.914062 321.226562 115.902344 C 321.6875 115.886719 322.269531 115.890625 322.738281 115.875 L 322.796875 116.082031 C 324.1875 115.960938 326.867188 116.183594 329.410156 115.992188 L 329.183594 116.039062 C 331.214844 116.046875 331.378906 115.632812 333.582031 115.546875 C 332.945312 115.65625 333.238281 115.738281 333.355469 115.835938 C 334.453125 115.714844 335.039062 115.875 336.148438 115.914062 C 334.863281 115.8125 337.007812 115.679688 336.078125 115.625 C 336.011719 115.417969 338.277344 115.382812 339.441406 115.386719 C 340.136719 115.648438 335.84375 115.59375 337.59375 115.839844 C 338.753906 115.847656 339.042969 115.691406 338.226562 115.652344 C 339.675781 115.660156 341.882812 115.65625 342.933594 115.804688 C 344.664062 115.574219 345.363281 115.675781 346.460938 115.394531 C 345.53125 115.421875 345.480469 115.613281 344.316406 115.527344 L 345.585938 115.308594 C 347.269531 115.269531 348.609375 115.421875 349.769531 115.425781 L 348.550781 115.53125 L 348.613281 115.5 C 348.148438 115.59375 346.582031 115.570312 346.761719 115.714844 C 347.855469 115.511719 348.734375 115.675781 350.179688 115.523438 L 350.125 115.554688 C 352.667969 115.363281 354.539062 115.789062 356.152344 115.382812 C 355.6875 115.394531 354.753906 115.261719 355.042969 115.183594 C 355.628906 115.265625 357.195312 115.210938 357.140625 115.320312 L 356.617188 115.367188 C 358.066406 115.375 358.941406 115.378906 359.464844 115.332031 C 359.863281 115.191406 359.453125 115.09375 360.496094 115.003906 C 363.050781 115.050781 359.464844 115.332031 361.203125 115.421875 L 363.578125 115.246094 L 364.105469 115.359375 C 367.644531 115.425781 370.363281 114.976562 374.132812 114.917969 C 374.199219 115.125 371.472656 115.253906 370.546875 115.28125 C 371.710938 115.445312 373.386719 115.167969 374.953125 115.273438 C 376.410156 115.28125 377.5 115.078125 377.269531 114.964844 C 379.0625 114.863281 378.550781 115.066406 378.78125 115.101562 C 379.355469 114.863281 381.621094 114.910156 383.066406 114.835938 L 383.132812 114.964844 L 385.390625 114.769531 C 384.8125 114.765625 385.328125 114.640625 385.328125 114.5625 L 385.90625 114.5625 C 383.691406 114.246094 380.925781 114.886719 378.648438 114.523438 C 379.34375 114.464844 378.414062 114.414062 379.109375 114.351562 C 379.6875 114.355469 379.804688 114.371094 379.863281 114.421875 C 380.210938 114.308594 381.136719 114.203125 379.917969 114.230469 C 379.96875 113.957031 382.410156 113.984375 384.085938 113.867188 C 385.425781 114.019531 382.699219 114.148438 382.007812 114.289062 C 382.648438 114.257812 383.167969 114.132812 384.097656 114.1875 L 383.871094 114.390625 C 386.1875 114.246094 384.5 114.207031 385.019531 114 C 385.648438 113.734375 387.109375 113.980469 387.746094 113.949219 L 387.050781 114.011719 C 388.851562 114.070312 389.25 113.847656 390.871094 113.839844 L 391.636719 113.988281 C 389.59375 113.816406 389.152344 114.308594 387.988281 114.222656 C 390.949219 114.367188 387.359375 114.652344 386.433594 114.839844 C 387.714844 114.78125 388.871094 114.785156 389.566406 114.886719 C 391.421875 114.59375 393.460938 114.921875 395.25 114.582031 C 396.234375 114.601562 394.382812 114.734375 395.429688 114.726562 C 397.34375 114.71875 399.375 114.648438 401.398438 114.5 C 402.449219 114.492188 402.269531 114.585938 402.566406 114.664062 C 407.617188 114.707031 409.578125 114.191406 415.09375 114.222656 L 414.285156 114.34375 C 415.441406 114.351562 416.429688 114.375 417.003906 114.214844 C 418.464844 114.542969 421.933594 113.921875 423.796875 114.265625 C 426.238281 114.296875 426.34375 113.992188 428.261719 113.90625 C 428.261719 113.988281 427.679688 114.144531 428.671875 114.164062 C 434.933594 113.945312 440.5625 113.828125 447.460938 113.65625 C 447.40625 113.6875 447.058594 113.71875 446.886719 113.734375 C 451.355469 113.691406 455.753906 113.285156 459.46875 113.339844 C 460.164062 113.277344 462.25 113.175781 461.605469 113.046875 C 460.738281 113.039062 460.617188 112.863281 460.671875 112.753906 C 463.976562 112.546875 462.300781 112.984375 464.507812 112.902344 C 465.207031 113.160156 463.121094 113.101562 463.121094 113.339844 L 466.3125 113.117188 C 468.113281 113.175781 469.90625 112.996094 471.476562 113.097656 C 470.777344 113.078125 471.25 113.304688 470.085938 113.21875 C 470.261719 113.203125 470.144531 113.1875 470.320312 113.171875 C 467.648438 113.191406 468.867188 113.324219 466.492188 113.421875 C 468.582031 113.320312 471.417969 113.210938 473.277344 113.234375 C 472.867188 113.058594 474.785156 113.132812 475.304688 113.007812 L 475.421875 113.023438 C 475.417969 112.941406 476.574219 112.871094 476.925781 112.839844 L 477.394531 113.066406 C 478.207031 113.019531 477.160156 112.953125 477.972656 112.910156 C 479.125 112.835938 483.25 112.742188 483.546875 112.984375 C 484.941406 112.945312 485.34375 112.804688 486.789062 112.808594 C 486.675781 112.875 486.328125 112.90625 486.273438 112.933594 C 489.347656 112.933594 493.117188 112.796875 496.027344 112.890625 C 498.398438 112.792969 500.429688 112.722656 501.933594 112.539062 C 501.296875 112.566406 499.433594 112.542969 500.59375 112.386719 C 501.230469 112.28125 502.214844 112.300781 503.199219 112.242188 C 502.972656 112.367188 505.699219 112.320312 503.730469 112.4375 C 504.230469 112.695312 507.980469 112.316406 507.953125 112.582031 C 508.414062 112.492188 511.214844 112.496094 512.261719 112.339844 C 512.496094 112.453125 510.75 112.441406 510.753906 112.523438 L 512.03125 112.464844 L 512.03125 112.542969 C 514.472656 112.574219 514.925781 112.242188 516.375 112.167969 L 516.316406 112.199219 L 517.300781 112.140625 L 516.148438 112.375 C 517.714844 112.320312 518.519531 112.117188 520.257812 112.046875 L 520.433594 112.109375 L 521.480469 112.019531 C 521.304688 112.035156 521.246094 112.066406 521.359375 112.082031 C 522.34375 111.863281 524.609375 111.910156 525.53125 111.722656 C 526.226562 111.742188 526.820312 111.984375 527.742188 111.796875 L 527.574219 112.050781 C 525.253906 112.117188 526.703125 111.886719 524.265625 112.019531 C 526.070312 112.3125 531.121094 112.195312 534.484375 112.121094 C 537.203125 111.910156 541.679688 112.109375 542.832031 111.71875 L 542.546875 111.875 L 547.128906 111.929688 C 551.019531 111.808594 555.023438 111.859375 557.976562 111.605469 L 558.792969 111.71875 C 561.851562 111.242188 569.230469 111.378906 571.246094 110.828125 C 572.988281 110.917969 570.726562 111.035156 570.554688 111.128906 C 571.835938 111.152344 573.972656 110.78125 575.199219 110.992188 C 575.199219 111.074219 573.398438 111.097656 574.214844 111.132812 C 575.144531 111.265625 575.539062 110.964844 576.589844 111.113281 C 576.125 110.964844 578.269531 110.753906 579.828125 110.699219 C 579.539062 110.695312 579.539062 110.695312 579.417969 110.679688 C 579.1875 110.566406 580.351562 110.574219 580.988281 110.546875 C 580.988281 110.546875 580.929688 110.578125 580.757812 110.589844 C 588.8125 110.265625 598.03125 110.027344 606.507812 110.039062 L 604.949219 110.175781 C 606.164062 110.070312 608.316406 110.097656 609.007812 110.117188 L 608.832031 110.132812 C 611.101562 110.335938 611.382812 109.859375 613.128906 110.105469 L 612.785156 110.136719 C 615.511719 110.085938 617.136719 110.320312 619.800781 110.140625 C 621.898438 110.203125 621.667969 110.328125 623.125 110.414062 C 624.339844 110.390625 624.910156 110.230469 624.972656 110.203125 L 624.390625 110.195312 C 623.75 110.066406 625.664062 110.0625 626.53125 109.988281 C 625.890625 109.777344 626.226562 109.425781 623.78125 109.238281 C 621.988281 109.339844 622.03125 108.910156 620.003906 108.976562 C 618.851562 109.292969 617.09375 108.804688 615.25 109.097656 C 616.230469 108.878906 613.039062 109.023438 614.65625 108.773438 C 613.898438 108.628906 610.71875 109.011719 609.257812 108.84375 C 609.496094 108.796875 609.4375 108.746094 609.78125 108.71875 C 607.75 108.867188 608.386719 108.597656 606.878906 108.621094 L 606.941406 108.828125 C 606.359375 108.90625 606.179688 108.761719 605.660156 108.808594 C 606.074219 108.828125 606.941406 108.910156 606.484375 109.003906 C 605.789062 109.0625 605.207031 109.140625 604.457031 109.152344 C 604.445312 109.074219 604.96875 109.027344 605.324219 108.996094 C 605.324219 108.996094 603.691406 109.003906 603.578125 108.910156 C 604.15625 108.832031 604.910156 108.820312 605.421875 108.695312 C 603.28125 108.667969 605.25 108.632812 604.203125 108.484375 C 604.5 108.722656 602.34375 108.613281 601.191406 108.6875 C 601.070312 108.59375 602.003906 108.644531 602.289062 108.566406 C 600.070312 108.171875 598.980469 108.691406 596.140625 108.644531 C 596.195312 108.613281 596.542969 108.585938 596.722656 108.570312 C 595.382812 108.660156 594.449219 108.445312 593.582031 108.601562 C 592.304688 108.578125 593.34375 108.328125 591.371094 108.367188 C 591.957031 108.609375 589.046875 108.355469 589 108.625 L 587.484375 108.488281 C 586.152344 108.65625 587.847656 108.9375 585.234375 109.003906 C 582.855469 108.941406 585.453125 108.558594 584.0625 108.441406 L 583.480469 108.597656 L 582.316406 108.511719 L 582.496094 108.496094 C 581.796875 108.554688 580.523438 108.53125 580.519531 108.453125 C 580.632812 108.390625 581.390625 108.378906 581.5 108.316406 C 580.347656 108.46875 576.910156 108.019531 575.703125 108.445312 C 575.019531 108.382812 573.609375 108.40625 573.785156 108.277344 C 573.167969 108.464844 570.695312 108.269531 569.777344 108.398438 C 569.894531 108.332031 569.019531 108.25 568.324219 108.308594 C 569.257812 108.363281 568.675781 108.4375 568.042969 108.546875 C 567.222656 108.429688 564.910156 108.578125 564.550781 108.371094 C 563.277344 108.507812 563.746094 108.652344 563.46875 108.8125 C 562.648438 108.695312 560.039062 108.761719 560.496094 108.507812 C 561.195312 108.527344 562.761719 108.550781 562.464844 108.390625 C 561.128906 108.320312 561.886719 108.46875 560.789062 108.507812 C 560.871094 108.464844 560.039062 108.371094 560.246094 108.296875 C 559.601562 108.332031 558.691406 108.34375 557.765625 108.316406 C 559.214844 108.40625 556.839844 108.503906 557.710938 108.589844 L 559.097656 108.386719 C 560.78125 108.351562 559.453125 108.519531 560.09375 108.570312 C 557.132812 108.664062 557.722656 108.90625 554.941406 109.066406 C 554.417969 109.035156 553.488281 108.980469 553.199219 108.980469 C 554.125 108.953125 553.945312 108.726562 553.417969 108.695312 C 551.863281 108.910156 550.628906 108.617188 549.351562 108.59375 C 550.457031 108.632812 549.878906 108.789062 549.476562 108.847656 C 546.8125 109.027344 548.429688 108.78125 547.265625 108.695312 C 543.152344 108.785156 540.53125 108.53125 537.230469 108.738281 L 538.800781 108.921875 L 539.316406 108.714844 C 540.539062 108.851562 539.097656 109.160156 538.40625 109.300781 C 538.230469 109.234375 536.199219 109.304688 537.007812 109.179688 L 535.035156 109.300781 C 535.332031 109.378906 536.605469 109.324219 535.6875 109.429688 C 535.035156 109.378906 533.011719 109.367188 534.28125 109.230469 C 533.238281 109.242188 531.90625 109.332031 532.140625 109.445312 C 530.460938 109.480469 532.308594 109.1875 533.058594 109.097656 C 531.726562 109.105469 531.894531 108.933594 532.296875 108.871094 L 530.445312 108.925781 C 530.847656 108.863281 530.84375 108.78125 531.246094 108.722656 C 530.027344 108.667969 529.160156 108.902344 528.117188 108.753906 L 527.65625 108.925781 C 524.289062 108.84375 524.632812 108.816406 521.496094 108.847656 L 522.023438 108.960938 C 519.652344 109.21875 520.28125 108.792969 517.089844 108.933594 C 515.296875 109.039062 514.132812 109.109375 514.375 109.304688 C 513.335938 109.394531 513.097656 109.28125 512.628906 109.214844 C 511.820312 109.335938 510.085938 109.566406 508.808594 109.464844 C 509.675781 109.390625 510.371094 109.332031 511.179688 109.285156 C 510.941406 109.09375 508.398438 109.289062 507.0625 109.21875 C 506.136719 109.324219 503.121094 109.609375 501.445312 109.808594 C 502.207031 109.957031 501.921875 110.195312 500.417969 110.378906 C 500.648438 110.25 498.382812 110.289062 497.339844 110.21875 C 497.855469 110.09375 495.011719 109.96875 497.210938 109.882812 C 497.847656 109.933594 498.144531 110.09375 499.015625 110.019531 C 498.488281 109.90625 497.089844 109.785156 495.640625 109.699219 C 495.75 109.636719 496.503906 109.546875 497.257812 109.53125 C 496.847656 109.59375 497.089844 109.628906 497.144531 109.675781 " fill-opacity="1" fill-rule="nonzero"/></g><path fill="#ffffff" d="M 287.3125 115.441406 C 287.390625 115.441406 287.46875 115.441406 287.550781 115.445312 L 287.257812 115.402344 C 287.355469 115.417969 287.355469 115.429688 287.3125 115.441406 " fill-opacity="1" fill-rule="nonzero"/><path fill="#ffffff" d="M 451.890625 110.316406 C 451.773438 110.324219 451.566406 110.355469 451.5625 110.382812 C 451.707031 110.363281 451.828125 110.34375 451.890625 110.316406 " fill-opacity="1" fill-rule="nonzero"/><path fill="#ffffff" d="M 420.277344 110.949219 C 420.3125 110.964844 420.316406 110.980469 420.332031 111 C 420.359375 110.984375 420.351562 110.972656 420.277344 110.949219 " fill-opacity="1" fill-rule="nonzero"/><path fill="#ffffff" d="M 285.242188 114.085938 L 285.804688 114.035156 C 285.601562 114.039062 285.503906 114.0625 285.242188 114.085938 " fill-opacity="1" fill-rule="nonzero"/><g clip-path="url(#244a784047)"><path fill="#87efac" d="M 859.410156 118.128906 C 811.644531 117.125 763.863281 116.378906 716.082031 115.890625 C 719.640625 115.046875 722.738281 113.648438 724.832031 111.332031 C 726.117188 109.898438 725.429688 107.726562 724.800781 106.238281 C 724.28125 105.003906 723.078125 102.234375 720.820312 101.832031 C 678.710938 94.402344 634.449219 94.988281 591.15625 95.386719 C 545.988281 95.808594 500.835938 96.96875 455.75 98.867188 C 365.78125 102.648438 276.640625 109.953125 187.65625 119.128906 C 162.445312 121.726562 137.222656 124.285156 111.980469 126.773438 C 99.804688 127.972656 87.617188 129.117188 75.410156 130.167969 C 69.058594 130.710938 62.722656 131.300781 56.378906 131.859375 C 53.226562 132.136719 50.078125 132.464844 46.925781 132.757812 C 45.871094 132.859375 44.8125 132.960938 43.757812 133.054688 C 41.933594 133.226562 40.105469 133.375 38.277344 133.507812 C 36.765625 133.875 35.277344 134.273438 33.8125 134.707031 C 32.199219 135.054688 29.578125 135.757812 28.757812 136.800781 C 28.347656 137.328125 28.3125 137.675781 28.765625 137.832031 C 28.753906 137.839844 28.734375 137.84375 28.714844 137.851562 C 30.664062 138.1875 32.0625 138.59375 34.074219 138.582031 C 35.191406 138.574219 36.3125 138.535156 37.429688 138.507812 C 40.230469 138.441406 43.035156 138.371094 45.835938 138.296875 C 46.898438 138.265625 47.964844 138.226562 49.027344 138.1875 C 53.378906 138.542969 57.714844 138.960938 62.023438 139.203125 C 62.460938 139.230469 61.550781 138.148438 61.003906 138.089844 C 60.078125 137.988281 59.152344 137.890625 58.226562 137.800781 C 60.242188 137.707031 62.257812 137.617188 64.273438 137.539062 C 75.910156 137.070312 87.554688 136.160156 99.144531 135.339844 C 122.054688 133.71875 144.882812 131.683594 167.710938 129.621094 C 213.09375 125.519531 258.40625 121.121094 303.9375 117.691406 C 393.996094 110.902344 484.480469 106.664062 575.148438 105.441406 C 612.851562 104.9375 651.664062 103.847656 689.304688 107.164062 C 678.296875 107.039062 667.296875 106.964844 656.285156 107.03125 C 630.664062 107.183594 605.046875 107.882812 579.480469 109 C 533.039062 111.023438 486.78125 114.414062 440.664062 118.371094 C 406.152344 120.230469 371.78125 123.097656 337.886719 127.707031 C 334.167969 128.210938 337.5 137.9375 341.601562 137.539062 C 370.59375 134.6875 399.648438 131.886719 428.761719 129.320312 C 467.414062 126.820312 506.277344 125.644531 545.15625 125.191406 C 613.492188 124.390625 681.910156 125 750.230469 125.828125 C 775.925781 126.136719 801.617188 126.53125 827.3125 126.988281 C 827.683594 128.144531 828.386719 128.960938 829.382812 128.914062 C 841.972656 128.40625 854.59375 128.421875 867.183594 127.765625 C 871.699219 127.527344 863.820312 118.222656 859.410156 118.128906 " fill-opacity="1" fill-rule="nonzero"/></g></svg>