<svg xmlns="http://www.w3.org/2000/svg" xmlns:xlink="http://www.w3.org/1999/xlink" width="1366" zoomAndPan="magnify" viewBox="0 0 1024.5 576" height="768" preserveAspectRatio="xMidYMid meet" version="1.0"><defs><g/></defs><g fill="#6b21a8" fill-opacity="1"><g transform="translate(224.147672, 362.571648)"><g><path d="M 12.90625 0.75 C 11.40625 0.75 10.222656 0.320312 9.359375 -0.53125 C 8.503906 -1.394531 8.078125 -2.648438 8.078125 -4.296875 L 8.078125 -48.203125 C 8.078125 -49.859375 8.503906 -51.097656 9.359375 -51.921875 C 10.222656 -52.742188 11.40625 -53.15625 12.90625 -53.15625 C 14.414062 -53.15625 15.582031 -52.742188 16.40625 -51.921875 C 17.226562 -51.097656 17.640625 -49.859375 17.640625 -48.203125 L 17.640625 -39.0625 L 16.46875 -41 C 17.832031 -44.945312 20.035156 -47.992188 23.078125 -50.140625 C 26.128906 -52.296875 29.769531 -53.375 34 -53.375 C 38.445312 -53.375 42.035156 -52.316406 44.765625 -50.203125 C 47.492188 -48.085938 49.320312 -44.875 50.25 -40.5625 L 48.75 -40.5625 C 50.039062 -44.507812 52.351562 -47.628906 55.6875 -49.921875 C 59.019531 -52.222656 62.910156 -53.375 67.359375 -53.375 C 71.304688 -53.375 74.550781 -52.601562 77.09375 -51.0625 C 79.644531 -49.519531 81.566406 -47.222656 82.859375 -44.171875 C 84.148438 -41.117188 84.796875 -37.226562 84.796875 -32.5 L 84.796875 -4.296875 C 84.796875 -2.648438 84.363281 -1.394531 83.5 -0.53125 C 82.644531 0.320312 81.460938 0.75 79.953125 0.75 C 78.378906 0.75 77.160156 0.320312 76.296875 -0.53125 C 75.429688 -1.394531 75 -2.648438 75 -4.296875 L 75 -32.0625 C 75 -36.65625 74.207031 -40.023438 72.625 -42.171875 C 71.050781 -44.328125 68.398438 -45.40625 64.671875 -45.40625 C 60.585938 -45.40625 57.34375 -43.988281 54.9375 -41.15625 C 52.53125 -38.320312 51.328125 -34.429688 51.328125 -29.484375 L 51.328125 -4.296875 C 51.328125 -2.648438 50.914062 -1.394531 50.09375 -0.53125 C 49.269531 0.320312 48.066406 0.75 46.484375 0.75 C 44.910156 0.75 43.691406 0.320312 42.828125 -0.53125 C 41.960938 -1.394531 41.53125 -2.648438 41.53125 -4.296875 L 41.53125 -32.0625 C 41.53125 -36.65625 40.738281 -40.023438 39.15625 -42.171875 C 37.582031 -44.328125 34.929688 -45.40625 31.203125 -45.40625 C 27.117188 -45.40625 23.875 -43.988281 21.46875 -41.15625 C 19.0625 -38.320312 17.859375 -34.429688 17.859375 -29.484375 L 17.859375 -4.296875 C 17.859375 -0.929688 16.207031 0.75 12.90625 0.75 Z M 12.90625 0.75 "/></g></g></g><g fill="#6b21a8" fill-opacity="1"><g transform="translate(311.417048, 362.571648)"><g><path d="M 24.53125 0.96875 C 20.945312 0.96875 17.703125 0.253906 14.796875 -1.171875 C 11.890625 -2.609375 9.628906 -4.546875 8.015625 -6.984375 C 6.398438 -9.429688 5.59375 -12.160156 5.59375 -15.171875 C 5.59375 -19.046875 6.5625 -22.09375 8.5 -24.3125 C 10.4375 -26.539062 13.703125 -28.140625 18.296875 -29.109375 C 22.890625 -30.078125 29.054688 -30.5625 36.796875 -30.5625 L 41.859375 -30.5625 L 41.859375 -24.3125 L 37.015625 -24.3125 C 31.492188 -24.3125 27.132812 -24.0625 23.9375 -23.5625 C 20.75 -23.0625 18.507812 -22.179688 17.21875 -20.921875 C 15.925781 -19.671875 15.28125 -17.9375 15.28125 -15.71875 C 15.28125 -12.914062 16.265625 -10.617188 18.234375 -8.828125 C 20.210938 -7.035156 22.921875 -6.140625 26.359375 -6.140625 C 29.085938 -6.140625 31.488281 -6.800781 33.5625 -8.125 C 35.644531 -9.445312 37.296875 -11.238281 38.515625 -13.5 C 39.742188 -15.757812 40.359375 -18.363281 40.359375 -21.3125 L 40.359375 -33.6875 C 40.359375 -37.914062 39.492188 -40.976562 37.765625 -42.875 C 36.046875 -44.78125 33.140625 -45.734375 29.046875 -45.734375 C 26.679688 -45.734375 24.242188 -45.410156 21.734375 -44.765625 C 19.222656 -44.117188 16.601562 -43.113281 13.875 -41.75 C 12.800781 -41.25 11.867188 -41.085938 11.078125 -41.265625 C 10.296875 -41.441406 9.671875 -41.867188 9.203125 -42.546875 C 8.734375 -43.234375 8.476562 -43.988281 8.4375 -44.8125 C 8.40625 -45.644531 8.585938 -46.453125 8.984375 -47.234375 C 9.378906 -48.023438 10.078125 -48.601562 11.078125 -48.96875 C 14.234375 -50.539062 17.375 -51.664062 20.5 -52.34375 C 23.625 -53.03125 26.546875 -53.375 29.265625 -53.375 C 33.929688 -53.375 37.769531 -52.640625 40.78125 -51.171875 C 43.789062 -49.703125 46.050781 -47.441406 47.5625 -44.390625 C 49.070312 -41.335938 49.828125 -37.445312 49.828125 -32.71875 L 49.828125 -4.296875 C 49.828125 -2.648438 49.429688 -1.394531 48.640625 -0.53125 C 47.847656 0.320312 46.703125 0.75 45.203125 0.75 C 43.765625 0.75 42.628906 0.320312 41.796875 -0.53125 C 40.972656 -1.394531 40.5625 -2.648438 40.5625 -4.296875 L 40.5625 -11.9375 L 41.53125 -11.9375 C 40.957031 -9.289062 39.878906 -7 38.296875 -5.0625 C 36.722656 -3.125 34.769531 -1.632812 32.4375 -0.59375 C 30.113281 0.445312 27.476562 0.96875 24.53125 0.96875 Z M 24.53125 0.96875 "/></g></g></g><g fill="#6b21a8" fill-opacity="1"><g transform="translate(363.391133, 362.571648)"><g><path d="M 12.90625 0.75 C 11.40625 0.75 10.222656 0.320312 9.359375 -0.53125 C 8.503906 -1.394531 8.078125 -2.648438 8.078125 -4.296875 L 8.078125 -48.203125 C 8.078125 -49.859375 8.503906 -51.097656 9.359375 -51.921875 C 10.222656 -52.742188 11.40625 -53.15625 12.90625 -53.15625 C 14.414062 -53.15625 15.582031 -52.742188 16.40625 -51.921875 C 17.226562 -51.097656 17.640625 -49.859375 17.640625 -48.203125 L 17.640625 -39.0625 L 16.46875 -41 C 17.832031 -44.945312 20.035156 -47.992188 23.078125 -50.140625 C 26.128906 -52.296875 29.769531 -53.375 34 -53.375 C 38.445312 -53.375 42.035156 -52.316406 44.765625 -50.203125 C 47.492188 -48.085938 49.320312 -44.875 50.25 -40.5625 L 48.75 -40.5625 C 50.039062 -44.507812 52.351562 -47.628906 55.6875 -49.921875 C 59.019531 -52.222656 62.910156 -53.375 67.359375 -53.375 C 71.304688 -53.375 74.550781 -52.601562 77.09375 -51.0625 C 79.644531 -49.519531 81.566406 -47.222656 82.859375 -44.171875 C 84.148438 -41.117188 84.796875 -37.226562 84.796875 -32.5 L 84.796875 -4.296875 C 84.796875 -2.648438 84.363281 -1.394531 83.5 -0.53125 C 82.644531 0.320312 81.460938 0.75 79.953125 0.75 C 78.378906 0.75 77.160156 0.320312 76.296875 -0.53125 C 75.429688 -1.394531 75 -2.648438 75 -4.296875 L 75 -32.0625 C 75 -36.65625 74.207031 -40.023438 72.625 -42.171875 C 71.050781 -44.328125 68.398438 -45.40625 64.671875 -45.40625 C 60.585938 -45.40625 57.34375 -43.988281 54.9375 -41.15625 C 52.53125 -38.320312 51.328125 -34.429688 51.328125 -29.484375 L 51.328125 -4.296875 C 51.328125 -2.648438 50.914062 -1.394531 50.09375 -0.53125 C 49.269531 0.320312 48.066406 0.75 46.484375 0.75 C 44.910156 0.75 43.691406 0.320312 42.828125 -0.53125 C 41.960938 -1.394531 41.53125 -2.648438 41.53125 -4.296875 L 41.53125 -32.0625 C 41.53125 -36.65625 40.738281 -40.023438 39.15625 -42.171875 C 37.582031 -44.328125 34.929688 -45.40625 31.203125 -45.40625 C 27.117188 -45.40625 23.875 -43.988281 21.46875 -41.15625 C 19.0625 -38.320312 17.859375 -34.429688 17.859375 -29.484375 L 17.859375 -4.296875 C 17.859375 -0.929688 16.207031 0.75 12.90625 0.75 Z M 12.90625 0.75 "/></g></g></g><g fill="#6b21a8" fill-opacity="1"><g transform="translate(450.660504, 362.571648)"><g><path d="M 12.703125 0.53125 C 11.191406 0.53125 10.003906 0.0664062 9.140625 -0.859375 C 8.285156 -1.796875 7.859375 -3.085938 7.859375 -4.734375 L 7.859375 -47.671875 C 7.859375 -49.390625 8.285156 -50.695312 9.140625 -51.59375 C 10.003906 -52.488281 11.191406 -52.9375 12.703125 -52.9375 C 14.273438 -52.9375 15.488281 -52.488281 16.34375 -51.59375 C 17.207031 -50.695312 17.640625 -49.390625 17.640625 -47.671875 L 17.640625 -4.734375 C 17.640625 -3.085938 17.226562 -1.796875 16.40625 -0.859375 C 15.582031 0.0664062 14.347656 0.53125 12.703125 0.53125 Z M 12.703125 -64.5625 C 10.765625 -64.5625 9.238281 -65.082031 8.125 -66.125 C 7.007812 -67.164062 6.453125 -68.546875 6.453125 -70.265625 C 6.453125 -72.128906 7.007812 -73.546875 8.125 -74.515625 C 9.238281 -75.484375 10.765625 -75.96875 12.703125 -75.96875 C 14.773438 -75.96875 16.332031 -75.484375 17.375 -74.515625 C 18.414062 -73.546875 18.9375 -72.128906 18.9375 -70.265625 C 18.9375 -68.546875 18.414062 -67.164062 17.375 -66.125 C 16.332031 -65.082031 14.773438 -64.5625 12.703125 -64.5625 Z M 12.703125 -64.5625 "/></g></g></g><g fill="#6b21a8" fill-opacity="1"><g transform="translate(470.78274, 362.571648)"><g/></g></g><g fill="#6b21a8" fill-opacity="1"><g transform="translate(493.487562, 362.571648)"><g><path d="M 15.8125 0.75 C 14.238281 0.75 13.019531 0.320312 12.15625 -0.53125 C 11.300781 -1.394531 10.875 -2.648438 10.875 -4.296875 L 10.875 -44.875 L 4.40625 -44.875 C 3.113281 -44.875 2.109375 -45.210938 1.390625 -45.890625 C 0.679688 -46.578125 0.328125 -47.492188 0.328125 -48.640625 C 0.328125 -49.859375 0.679688 -50.789062 1.390625 -51.4375 C 2.109375 -52.082031 3.113281 -52.40625 4.40625 -52.40625 L 13.5625 -52.40625 L 10.875 -49.828125 L 10.875 -53.796875 C 10.875 -60.765625 12.578125 -66.054688 15.984375 -69.671875 C 19.390625 -73.296875 24.390625 -75.394531 30.984375 -75.96875 L 34.328125 -76.1875 C 35.398438 -76.332031 36.257812 -76.171875 36.90625 -75.703125 C 37.550781 -75.234375 37.984375 -74.640625 38.203125 -73.921875 C 38.421875 -73.203125 38.4375 -72.46875 38.25 -71.71875 C 38.070312 -70.96875 37.734375 -70.304688 37.234375 -69.734375 C 36.734375 -69.160156 36.085938 -68.835938 35.296875 -68.765625 L 32.921875 -68.65625 C 28.617188 -68.289062 25.5 -67.015625 23.5625 -64.828125 C 21.625 -62.640625 20.65625 -59.394531 20.65625 -55.09375 L 20.65625 -50.796875 L 19.265625 -52.40625 L 31.640625 -52.40625 C 33.003906 -52.40625 34.039062 -52.082031 34.75 -51.4375 C 35.46875 -50.789062 35.828125 -49.859375 35.828125 -48.640625 C 35.828125 -47.492188 35.46875 -46.578125 34.75 -45.890625 C 34.039062 -45.210938 33.003906 -44.875 31.640625 -44.875 L 20.65625 -44.875 L 20.65625 -4.296875 C 20.65625 -0.929688 19.039062 0.75 15.8125 0.75 Z M 15.8125 0.75 "/></g></g></g><g fill="#6b21a8" fill-opacity="1"><g transform="translate(524.693393, 362.571648)"><g><path d="M 32.0625 0.96875 C 26.394531 0.96875 21.535156 -0.125 17.484375 -2.3125 C 13.429688 -4.5 10.289062 -7.617188 8.0625 -11.671875 C 5.84375 -15.722656 4.734375 -20.515625 4.734375 -26.046875 C 4.734375 -31.492188 5.828125 -36.257812 8.015625 -40.34375 C 10.203125 -44.4375 13.210938 -47.628906 17.046875 -49.921875 C 20.890625 -52.222656 25.285156 -53.375 30.234375 -53.375 C 33.753906 -53.375 36.929688 -52.78125 39.765625 -51.59375 C 42.597656 -50.414062 45.015625 -48.710938 47.015625 -46.484375 C 49.023438 -44.265625 50.550781 -41.554688 51.59375 -38.359375 C 52.632812 -35.171875 53.15625 -31.566406 53.15625 -27.546875 C 53.15625 -26.398438 52.8125 -25.519531 52.125 -24.90625 C 51.445312 -24.300781 50.460938 -24 49.171875 -24 L 12.375 -24 L 12.375 -30.234375 L 46.703125 -30.234375 L 44.875 -28.734375 C 44.875 -32.460938 44.316406 -35.632812 43.203125 -38.25 C 42.085938 -40.875 40.472656 -42.863281 38.359375 -44.21875 C 36.242188 -45.582031 33.609375 -46.265625 30.453125 -46.265625 C 27.003906 -46.265625 24.0625 -45.457031 21.625 -43.84375 C 19.1875 -42.226562 17.320312 -39.96875 16.03125 -37.0625 C 14.738281 -34.164062 14.09375 -30.816406 14.09375 -27.015625 L 14.09375 -26.359375 C 14.09375 -19.898438 15.632812 -15.019531 18.71875 -11.71875 C 21.800781 -8.425781 26.25 -6.78125 32.0625 -6.78125 C 34.363281 -6.78125 36.710938 -7.066406 39.109375 -7.640625 C 41.515625 -8.210938 43.832031 -9.253906 46.0625 -10.765625 C 47.132812 -11.410156 48.117188 -11.710938 49.015625 -11.671875 C 49.910156 -11.640625 50.644531 -11.351562 51.21875 -10.8125 C 51.789062 -10.269531 52.148438 -9.625 52.296875 -8.875 C 52.441406 -8.125 52.332031 -7.316406 51.96875 -6.453125 C 51.613281 -5.597656 50.9375 -4.847656 49.9375 -4.203125 C 47.5625 -2.546875 44.742188 -1.269531 41.484375 -0.375 C 38.222656 0.519531 35.082031 0.96875 32.0625 0.96875 Z M 32.0625 0.96875 "/></g></g></g><g fill="#6b21a8" fill-opacity="1"><g transform="translate(576.775097, 362.571648)"><g><path d="M 12.90625 0.75 C 11.257812 0.75 10.003906 0.320312 9.140625 -0.53125 C 8.285156 -1.394531 7.859375 -2.648438 7.859375 -4.296875 L 7.859375 -48.203125 C 7.859375 -49.859375 8.285156 -51.097656 9.140625 -51.921875 C 10.003906 -52.742188 11.191406 -53.15625 12.703125 -53.15625 C 14.203125 -53.15625 15.363281 -52.742188 16.1875 -51.921875 C 17.019531 -51.097656 17.4375 -49.859375 17.4375 -48.203125 L 17.4375 -39.921875 L 16.359375 -39.921875 C 17.503906 -44.222656 19.65625 -47.484375 22.8125 -49.703125 C 25.96875 -51.929688 29.945312 -53.191406 34.75 -53.484375 C 35.90625 -53.554688 36.835938 -53.285156 37.546875 -52.671875 C 38.265625 -52.066406 38.660156 -51.046875 38.734375 -49.609375 C 38.804688 -48.242188 38.484375 -47.148438 37.765625 -46.328125 C 37.046875 -45.503906 35.9375 -45.019531 34.4375 -44.875 L 32.5 -44.765625 C 27.757812 -44.265625 24.113281 -42.722656 21.5625 -40.140625 C 19.019531 -37.554688 17.75 -34.003906 17.75 -29.484375 L 17.75 -4.296875 C 17.75 -2.648438 17.335938 -1.394531 16.515625 -0.53125 C 15.691406 0.320312 14.488281 0.75 12.90625 0.75 Z M 12.90625 0.75 "/></g></g></g><g fill="#6b21a8" fill-opacity="1"><g transform="translate(610.671127, 362.571648)"><g><path d="M 29.59375 0.96875 C 25.363281 0.96875 21.832031 0.21875 19 -1.28125 C 16.164062 -2.789062 14.046875 -4.976562 12.640625 -7.84375 C 11.242188 -10.71875 10.546875 -14.238281 10.546875 -18.40625 L 10.546875 -44.875 L 3.65625 -44.875 C 2.363281 -44.875 1.359375 -45.210938 0.640625 -45.890625 C -0.078125 -46.578125 -0.4375 -47.492188 -0.4375 -48.640625 C -0.4375 -49.859375 -0.078125 -50.789062 0.640625 -51.4375 C 1.359375 -52.082031 2.363281 -52.40625 3.65625 -52.40625 L 10.546875 -52.40625 L 10.546875 -64.140625 C 10.546875 -65.785156 10.972656 -67.019531 11.828125 -67.84375 C 12.691406 -68.664062 13.914062 -69.078125 15.5 -69.078125 C 17.070312 -69.078125 18.269531 -68.664062 19.09375 -67.84375 C 19.925781 -67.019531 20.34375 -65.785156 20.34375 -64.140625 L 20.34375 -52.40625 L 33.359375 -52.40625 C 34.722656 -52.40625 35.765625 -52.082031 36.484375 -51.4375 C 37.203125 -50.789062 37.5625 -49.859375 37.5625 -48.640625 C 37.5625 -47.492188 37.203125 -46.578125 36.484375 -45.890625 C 35.765625 -45.210938 34.722656 -44.875 33.359375 -44.875 L 20.34375 -44.875 L 20.34375 -19.265625 C 20.34375 -15.316406 21.164062 -12.335938 22.8125 -10.328125 C 24.457031 -8.316406 27.179688 -7.3125 30.984375 -7.3125 C 32.347656 -7.3125 33.492188 -7.4375 34.421875 -7.6875 C 35.359375 -7.945312 36.1875 -8.078125 36.90625 -8.078125 C 37.550781 -8.140625 38.109375 -7.921875 38.578125 -7.421875 C 39.046875 -6.921875 39.28125 -5.988281 39.28125 -4.625 C 39.28125 -3.625 39.117188 -2.707031 38.796875 -1.875 C 38.472656 -1.050781 37.84375 -0.5 36.90625 -0.21875 C 36.050781 0.0703125 34.90625 0.34375 33.46875 0.59375 C 32.03125 0.84375 30.738281 0.96875 29.59375 0.96875 Z M 29.59375 0.96875 "/></g></g></g><g fill="#6b21a8" fill-opacity="1"><g transform="translate(643.813886, 362.571648)"><g><path d="M 12.703125 0.53125 C 11.191406 0.53125 10.003906 0.0664062 9.140625 -0.859375 C 8.285156 -1.796875 7.859375 -3.085938 7.859375 -4.734375 L 7.859375 -47.671875 C 7.859375 -49.390625 8.285156 -50.695312 9.140625 -51.59375 C 10.003906 -52.488281 11.191406 -52.9375 12.703125 -52.9375 C 14.273438 -52.9375 15.488281 -52.488281 16.34375 -51.59375 C 17.207031 -50.695312 17.640625 -49.390625 17.640625 -47.671875 L 17.640625 -4.734375 C 17.640625 -3.085938 17.226562 -1.796875 16.40625 -0.859375 C 15.582031 0.0664062 14.347656 0.53125 12.703125 0.53125 Z M 12.703125 -64.5625 C 10.765625 -64.5625 9.238281 -65.082031 8.125 -66.125 C 7.007812 -67.164062 6.453125 -68.546875 6.453125 -70.265625 C 6.453125 -72.128906 7.007812 -73.546875 8.125 -74.515625 C 9.238281 -75.484375 10.765625 -75.96875 12.703125 -75.96875 C 14.773438 -75.96875 16.332031 -75.484375 17.375 -74.515625 C 18.414062 -73.546875 18.9375 -72.128906 18.9375 -70.265625 C 18.9375 -68.546875 18.414062 -67.164062 17.375 -66.125 C 16.332031 -65.082031 14.773438 -64.5625 12.703125 -64.5625 Z M 12.703125 -64.5625 "/></g></g></g><g fill="#6b21a8" fill-opacity="1"><g transform="translate(663.936145, 362.571648)"><g><path d="M 24.3125 0.96875 C 18.9375 0.96875 14.847656 -0.625 12.046875 -3.8125 C 9.253906 -7.007812 7.859375 -11.617188 7.859375 -17.640625 L 7.859375 -71.671875 C 7.859375 -73.316406 8.285156 -74.550781 9.140625 -75.375 C 10.003906 -76.207031 11.191406 -76.625 12.703125 -76.625 C 14.273438 -76.625 15.488281 -76.207031 16.34375 -75.375 C 17.207031 -74.550781 17.640625 -73.316406 17.640625 -71.671875 L 17.640625 -18.40625 C 17.640625 -14.675781 18.410156 -11.894531 19.953125 -10.0625 C 21.503906 -8.226562 23.710938 -7.3125 26.578125 -7.3125 C 27.222656 -7.3125 27.796875 -7.328125 28.296875 -7.359375 C 28.796875 -7.398438 29.300781 -7.457031 29.8125 -7.53125 C 30.59375 -7.601562 31.160156 -7.390625 31.515625 -6.890625 C 31.878906 -6.390625 32.0625 -5.382812 32.0625 -3.875 C 32.0625 -2.507812 31.753906 -1.445312 31.140625 -0.6875 C 30.535156 0.0625 29.550781 0.539062 28.1875 0.75 C 27.539062 0.820312 26.894531 0.875 26.25 0.90625 C 25.601562 0.945312 24.957031 0.96875 24.3125 0.96875 Z M 24.3125 0.96875 "/></g></g></g><g fill="#6b21a8" fill-opacity="1"><g transform="translate(690.945255, 362.571648)"><g><path d="M 12.703125 0.53125 C 11.191406 0.53125 10.003906 0.0664062 9.140625 -0.859375 C 8.285156 -1.796875 7.859375 -3.085938 7.859375 -4.734375 L 7.859375 -47.671875 C 7.859375 -49.390625 8.285156 -50.695312 9.140625 -51.59375 C 10.003906 -52.488281 11.191406 -52.9375 12.703125 -52.9375 C 14.273438 -52.9375 15.488281 -52.488281 16.34375 -51.59375 C 17.207031 -50.695312 17.640625 -49.390625 17.640625 -47.671875 L 17.640625 -4.734375 C 17.640625 -3.085938 17.226562 -1.796875 16.40625 -0.859375 C 15.582031 0.0664062 14.347656 0.53125 12.703125 0.53125 Z M 12.703125 -64.5625 C 10.765625 -64.5625 9.238281 -65.082031 8.125 -66.125 C 7.007812 -67.164062 6.453125 -68.546875 6.453125 -70.265625 C 6.453125 -72.128906 7.007812 -73.546875 8.125 -74.515625 C 9.238281 -75.484375 10.765625 -75.96875 12.703125 -75.96875 C 14.773438 -75.96875 16.332031 -75.484375 17.375 -74.515625 C 18.414062 -73.546875 18.9375 -72.128906 18.9375 -70.265625 C 18.9375 -68.546875 18.414062 -67.164062 17.375 -66.125 C 16.332031 -65.082031 14.773438 -64.5625 12.703125 -64.5625 Z M 12.703125 -64.5625 "/></g></g></g><g fill="#6b21a8" fill-opacity="1"><g transform="translate(711.067513, 362.571648)"><g><path d="M 29.59375 0.96875 C 25.363281 0.96875 21.832031 0.21875 19 -1.28125 C 16.164062 -2.789062 14.046875 -4.976562 12.640625 -7.84375 C 11.242188 -10.71875 10.546875 -14.238281 10.546875 -18.40625 L 10.546875 -44.875 L 3.65625 -44.875 C 2.363281 -44.875 1.359375 -45.210938 0.640625 -45.890625 C -0.078125 -46.578125 -0.4375 -47.492188 -0.4375 -48.640625 C -0.4375 -49.859375 -0.078125 -50.789062 0.640625 -51.4375 C 1.359375 -52.082031 2.363281 -52.40625 3.65625 -52.40625 L 10.546875 -52.40625 L 10.546875 -64.140625 C 10.546875 -65.785156 10.972656 -67.019531 11.828125 -67.84375 C 12.691406 -68.664062 13.914062 -69.078125 15.5 -69.078125 C 17.070312 -69.078125 18.269531 -68.664062 19.09375 -67.84375 C 19.925781 -67.019531 20.34375 -65.785156 20.34375 -64.140625 L 20.34375 -52.40625 L 33.359375 -52.40625 C 34.722656 -52.40625 35.765625 -52.082031 36.484375 -51.4375 C 37.203125 -50.789062 37.5625 -49.859375 37.5625 -48.640625 C 37.5625 -47.492188 37.203125 -46.578125 36.484375 -45.890625 C 35.765625 -45.210938 34.722656 -44.875 33.359375 -44.875 L 20.34375 -44.875 L 20.34375 -19.265625 C 20.34375 -15.316406 21.164062 -12.335938 22.8125 -10.328125 C 24.457031 -8.316406 27.179688 -7.3125 30.984375 -7.3125 C 32.347656 -7.3125 33.492188 -7.4375 34.421875 -7.6875 C 35.359375 -7.945312 36.1875 -8.078125 36.90625 -8.078125 C 37.550781 -8.140625 38.109375 -7.921875 38.578125 -7.421875 C 39.046875 -6.921875 39.28125 -5.988281 39.28125 -4.625 C 39.28125 -3.625 39.117188 -2.707031 38.796875 -1.875 C 38.472656 -1.050781 37.84375 -0.5 36.90625 -0.21875 C 36.050781 0.0703125 34.90625 0.34375 33.46875 0.59375 C 32.03125 0.84375 30.738281 0.96875 29.59375 0.96875 Z M 29.59375 0.96875 "/></g></g></g><g fill="#6b21a8" fill-opacity="1"><g transform="translate(744.210272, 362.571648)"><g><path d="M 19.90625 20.125 C 18.757812 20.125 17.804688 19.816406 17.046875 19.203125 C 16.296875 18.597656 15.867188 17.773438 15.765625 16.734375 C 15.660156 15.691406 15.859375 14.597656 16.359375 13.453125 L 23.671875 -3.125 L 23.671875 0.96875 L 3.328125 -46.375 C 2.828125 -47.59375 2.648438 -48.703125 2.796875 -49.703125 C 2.941406 -50.710938 3.425781 -51.539062 4.25 -52.1875 C 5.070312 -52.832031 6.203125 -53.15625 7.640625 -53.15625 C 8.859375 -53.15625 9.828125 -52.867188 10.546875 -52.296875 C 11.265625 -51.722656 11.945312 -50.71875 12.59375 -49.28125 L 29.484375 -7.640625 L 26.46875 -7.640625 L 43.6875 -49.28125 C 44.257812 -50.71875 44.941406 -51.722656 45.734375 -52.296875 C 46.523438 -52.867188 47.601562 -53.15625 48.96875 -53.15625 C 50.1875 -53.15625 51.132812 -52.832031 51.8125 -52.1875 C 52.5 -51.539062 52.910156 -50.710938 53.046875 -49.703125 C 53.191406 -48.703125 52.976562 -47.628906 52.40625 -46.484375 L 25.28125 16.25 C 24.570312 17.757812 23.835938 18.78125 23.078125 19.3125 C 22.328125 19.851562 21.269531 20.125 19.90625 20.125 Z M 19.90625 20.125 "/></g></g></g><g fill="#6b21a8" fill-opacity="1"><g transform="translate(328.316823, 270.510543)"><g><path d="M 113.140625 -30.375 C 113.671875 -29.757812 113.9375 -29.035156 113.9375 -28.203125 C 113.863281 -27.359375 113.519531 -26.671875 112.90625 -26.140625 C 107.320312 -21.398438 101.207031 -17.671875 94.5625 -14.953125 C 87.914062 -12.242188 81 -10.601562 73.8125 -10.03125 C 66.632812 -9.457031 59.453125 -10.007812 52.265625 -11.6875 C 49.972656 -12.300781 47.679688 -13.066406 45.390625 -13.984375 C 44.242188 -14.597656 43.328125 -14.40625 42.640625 -13.40625 C 42.109375 -12.800781 41.648438 -12.210938 41.265625 -11.640625 C 40.878906 -11.066406 40.535156 -10.585938 40.234375 -10.203125 C 37.554688 -7.066406 35.128906 -4.882812 32.953125 -3.65625 C 30.773438 -2.4375 28.863281 -1.828125 27.21875 -1.828125 C 25.582031 -1.828125 24.191406 -2.132812 23.046875 -2.75 C 22.273438 -3.132812 21.625 -3.671875 21.09375 -4.359375 C 20.175781 -5.191406 19.085938 -5.628906 17.828125 -5.671875 C 16.566406 -5.710938 15.476562 -5.3125 14.5625 -4.46875 C 13.488281 -3.550781 12.300781 -2.828125 11 -2.296875 C 9.851562 -1.753906 8.671875 -1.484375 7.453125 -1.484375 C 6.078125 -1.484375 4.773438 -1.789062 3.546875 -2.40625 C 1.109375 -3.550781 -0.53125 -5.460938 -1.375 -8.140625 C -2.132812 -10.359375 -2.378906 -12.820312 -2.109375 -15.53125 C -1.847656 -18.238281 -1.316406 -20.875 -0.515625 -23.4375 C 0.285156 -26 1.066406 -28.195312 1.828125 -30.03125 C 2.597656 -31.863281 3.097656 -32.972656 3.328125 -33.359375 C 3.703125 -34.117188 4.269531 -34.628906 5.03125 -34.890625 C 5.800781 -35.160156 6.570312 -35.109375 7.34375 -34.734375 C 8.101562 -34.421875 8.613281 -33.863281 8.875 -33.0625 C 9.144531 -32.257812 9.09375 -31.476562 8.71875 -30.71875 C 8.257812 -29.800781 7.679688 -28.460938 6.984375 -26.703125 C 6.296875 -24.953125 5.664062 -23.0625 5.09375 -21.03125 C 4.519531 -19.007812 4.117188 -17.023438 3.890625 -15.078125 C 3.660156 -13.128906 3.773438 -11.46875 4.234375 -10.09375 C 4.546875 -9.019531 5.195312 -8.253906 6.1875 -7.796875 C 7.03125 -7.410156 7.875 -7.410156 8.71875 -7.796875 C 10.238281 -8.484375 11.78125 -9.875 13.34375 -11.96875 C 14.914062 -14.070312 16.347656 -16.421875 17.640625 -19.015625 C 18.941406 -21.617188 19.976562 -23.914062 20.75 -25.90625 C 21.050781 -26.664062 21.566406 -27.21875 22.296875 -27.5625 C 23.023438 -27.90625 23.769531 -27.960938 24.53125 -27.734375 C 25.375 -27.429688 25.96875 -26.894531 26.3125 -26.125 C 26.65625 -25.363281 26.671875 -24.601562 26.359375 -23.84375 C 25.753906 -22.007812 25.257812 -19.945312 24.875 -17.65625 C 24.488281 -15.363281 24.332031 -13.316406 24.40625 -11.515625 C 24.488281 -9.722656 24.988281 -8.597656 25.90625 -8.140625 C 26.894531 -7.523438 28.347656 -7.867188 30.265625 -9.171875 C 32.554688 -10.773438 34.503906 -12.644531 36.109375 -14.78125 C 37.640625 -16.613281 37.753906 -18.488281 36.453125 -20.40625 C 35.679688 -21.476562 35.179688 -22.703125 34.953125 -24.078125 C 34.492188 -28.347656 37.707031 -32.164062 44.59375 -35.53125 C 45.507812 -36.144531 46.5 -36.351562 47.5625 -36.15625 C 48.632812 -35.96875 49.476562 -35.492188 50.09375 -34.734375 C 50.9375 -33.660156 51.203125 -32.222656 50.890625 -30.421875 C 50.585938 -28.628906 50.015625 -26.703125 49.171875 -24.640625 C 48.554688 -23.265625 48.59375 -21.890625 49.28125 -20.515625 C 49.894531 -19.210938 50.929688 -18.375 52.390625 -18 C 52.847656 -17.84375 53.304688 -17.726562 53.765625 -17.65625 C 60.179688 -16.050781 66.65625 -15.492188 73.1875 -15.984375 C 79.71875 -16.484375 86.019531 -17.957031 92.09375 -20.40625 C 98.175781 -22.851562 103.773438 -26.210938 108.890625 -30.484375 C 109.503906 -31.097656 110.226562 -31.382812 111.0625 -31.34375 C 111.90625 -31.3125 112.597656 -30.988281 113.140625 -30.375 Z M 41.84375 -23.265625 C 42.675781 -24.953125 43.476562 -26.671875 44.25 -28.421875 C 42.945312 -27.585938 42.066406 -26.863281 41.609375 -26.25 C 41.148438 -25.632812 40.957031 -25.140625 41.03125 -24.765625 C 41.113281 -24.148438 41.382812 -23.648438 41.84375 -23.265625 Z M 41.84375 -23.265625 "/></g></g></g><g fill="#6b21a8" fill-opacity="1"><g transform="translate(437.189049, 270.510543)"><g><path d="M 95.828125 -27.859375 C 96.359375 -27.242188 96.625 -26.515625 96.625 -25.671875 C 96.550781 -24.835938 96.207031 -24.148438 95.59375 -23.609375 C 95.363281 -23.378906 94.234375 -22.421875 92.203125 -20.734375 C 90.179688 -19.054688 87.507812 -17.070312 84.1875 -14.78125 C 80.863281 -12.488281 77.117188 -10.253906 72.953125 -8.078125 C 68.796875 -5.898438 64.40625 -4.160156 59.78125 -2.859375 C 55.15625 -1.566406 50.53125 -1.070312 45.90625 -1.375 C 41.28125 -1.675781 36.867188 -3.203125 32.671875 -5.953125 C 29.460938 -8.023438 26.898438 -10.703125 24.984375 -13.984375 C 24.453125 -14.898438 23.613281 -15.394531 22.46875 -15.46875 C 21.394531 -15.550781 20.550781 -15.132812 19.9375 -14.21875 C 18.257812 -11.695312 16.425781 -9.304688 14.4375 -7.046875 C 12.457031 -4.796875 10.429688 -2.984375 8.359375 -1.609375 C 6.296875 -0.234375 4.3125 0.492188 2.40625 0.578125 L 2.296875 0.578125 C 0.921875 0.492188 -0.359375 0.0507812 -1.546875 -0.75 C -2.734375 -1.550781 -3.59375 -2.597656 -4.125 -3.890625 C -6.414062 -9.628906 -6.070312 -15.207031 -3.09375 -20.625 C -0.570312 -25.90625 2.957031 -30.394531 7.5 -34.09375 C 12.050781 -37.800781 17.191406 -40.34375 22.921875 -41.71875 C 24.066406 -42.03125 25.023438 -41.765625 25.796875 -40.921875 C 26.628906 -40.078125 26.894531 -39.082031 26.59375 -37.9375 C 26.207031 -36.875 25.441406 -36.1875 24.296875 -35.875 C 19.484375 -34.726562 15.164062 -32.609375 11.34375 -29.515625 C 7.519531 -26.421875 4.539062 -22.617188 2.40625 -18.109375 C 0.269531 -14.441406 -0.109375 -10.617188 1.265625 -6.640625 C 1.722656 -5.878906 2.066406 -5.5 2.296875 -5.5 C 2.984375 -5.039062 4.015625 -5.519531 5.390625 -6.9375 C 6.765625 -8.351562 8.328125 -10.359375 10.078125 -12.953125 C 11.835938 -15.546875 13.578125 -18.410156 15.296875 -21.546875 C 17.015625 -24.679688 18.5625 -27.738281 19.9375 -30.71875 C 20.550781 -32.09375 21.625 -32.664062 23.15625 -32.4375 C 24.601562 -32.207031 25.441406 -31.367188 25.671875 -29.921875 C 25.671875 -29.835938 25.820312 -29.085938 26.125 -27.671875 C 26.4375 -26.265625 26.972656 -24.53125 27.734375 -22.46875 C 28.503906 -20.40625 29.554688 -18.320312 30.890625 -16.21875 C 32.222656 -14.113281 33.925781 -12.375 36 -11 C 39.507812 -8.632812 43.304688 -7.394531 47.390625 -7.28125 C 51.484375 -7.164062 55.59375 -7.773438 59.71875 -9.109375 C 63.84375 -10.453125 67.796875 -12.132812 71.578125 -14.15625 C 75.359375 -16.175781 78.738281 -18.253906 81.71875 -20.390625 C 84.707031 -22.535156 87.078125 -24.332031 88.828125 -25.78125 C 90.585938 -27.238281 91.503906 -28.003906 91.578125 -28.078125 C 92.191406 -28.617188 92.921875 -28.867188 93.765625 -28.828125 C 94.609375 -28.785156 95.296875 -28.460938 95.828125 -27.859375 Z M 95.828125 -27.859375 "/></g></g></g><g fill="#6b21a8" fill-opacity="1"><g transform="translate(529.787736, 270.510543)"><g><path d="M 78.75 -31.171875 C 79.363281 -30.640625 79.671875 -29.953125 79.671875 -29.109375 C 79.671875 -28.273438 79.363281 -27.550781 78.75 -26.9375 C 78.519531 -26.707031 77.410156 -25.65625 75.421875 -23.78125 C 73.429688 -21.90625 70.789062 -19.648438 67.5 -17.015625 C 64.21875 -14.378906 60.492188 -11.78125 56.328125 -9.21875 C 52.171875 -6.664062 47.816406 -4.507812 43.265625 -2.75 C 38.722656 -0.988281 34.160156 -0.109375 29.578125 -0.109375 C 26.441406 -0.109375 23.34375 -0.679688 20.28125 -1.828125 C 13.40625 -4.429688 8.320312 -10.203125 5.03125 -19.140625 C 1.75 -28.078125 0.53125 -39.390625 1.375 -53.078125 C 1.300781 -53.679688 1.035156 -54.175781 0.578125 -54.5625 C 0.117188 -54.945312 -0.414062 -55.097656 -1.03125 -55.015625 C -6.84375 -54.554688 -12.113281 -54.15625 -16.84375 -53.8125 C -21.582031 -53.46875 -25.363281 -53.203125 -28.1875 -53.015625 C -31.019531 -52.828125 -32.515625 -52.734375 -32.671875 -52.734375 L -32.890625 -52.734375 C -33.734375 -52.648438 -34.460938 -52.894531 -35.078125 -53.46875 C -35.691406 -54.039062 -36 -54.75 -36 -55.59375 C -36 -56.4375 -35.726562 -57.160156 -35.1875 -57.765625 C -34.65625 -58.378906 -33.96875 -58.6875 -33.125 -58.6875 C -32.96875 -58.6875 -31.398438 -58.800781 -28.421875 -59.03125 C -25.441406 -59.257812 -21.46875 -59.5625 -16.5 -59.9375 C -11.539062 -60.320312 -6.039062 -60.707031 0 -61.09375 C 0.6875 -61.164062 1.238281 -61.507812 1.65625 -62.125 C 2.082031 -62.738281 2.367188 -63.460938 2.515625 -64.296875 C 3.203125 -68.804688 4.097656 -73.410156 5.203125 -78.109375 C 6.316406 -82.816406 7.597656 -87.191406 9.046875 -91.234375 C 10.503906 -95.285156 12.148438 -98.628906 13.984375 -101.265625 C 15.816406 -103.898438 17.765625 -105.445312 19.828125 -105.90625 C 20.671875 -106.0625 21.796875 -105.925781 23.203125 -105.5 C 24.617188 -105.082031 25.898438 -103.691406 27.046875 -101.328125 C 27.890625 -99.722656 28.082031 -97.03125 27.625 -93.25 C 27.164062 -89.46875 26.25 -85.09375 24.875 -80.125 C 23.5 -75.15625 21.894531 -70.035156 20.0625 -64.765625 C 19.675781 -63.765625 19.65625 -63.128906 20 -62.859375 C 20.34375 -62.597656 20.628906 -62.46875 20.859375 -62.46875 C 28.273438 -62.925781 35.328125 -63.304688 42.015625 -63.609375 C 48.703125 -63.921875 54.257812 -64.078125 58.6875 -64.078125 C 59.53125 -64.078125 60.238281 -63.769531 60.8125 -63.15625 C 61.382812 -62.539062 61.671875 -61.851562 61.671875 -61.09375 C 61.671875 -60.25 61.382812 -59.519531 60.8125 -58.90625 C 60.238281 -58.300781 59.53125 -58 58.6875 -58 C 54.101562 -58 48.238281 -57.863281 41.09375 -57.59375 C 33.945312 -57.332031 26.515625 -56.894531 18.796875 -56.28125 C 18.109375 -56.28125 17.628906 -56.203125 17.359375 -56.046875 C 17.097656 -55.898438 16.851562 -55.554688 16.625 -55.015625 C 15.019531 -50.273438 13.429688 -45.898438 11.859375 -41.890625 C 10.296875 -37.878906 9.019531 -34.648438 8.03125 -32.203125 C 8.488281 -28.617188 9.269531 -25.160156 10.375 -21.828125 C 11.476562 -18.503906 13.003906 -15.5625 14.953125 -13 C 16.898438 -10.445312 19.40625 -8.597656 22.46875 -7.453125 C 25.90625 -6.148438 29.570312 -5.804688 33.46875 -6.421875 C 37.363281 -7.035156 41.238281 -8.238281 45.09375 -10.03125 C 48.957031 -11.820312 52.628906 -13.882812 56.109375 -16.21875 C 59.585938 -18.550781 62.703125 -20.863281 65.453125 -23.15625 C 68.203125 -25.445312 70.378906 -27.335938 71.984375 -28.828125 C 73.585938 -30.316406 74.425781 -31.097656 74.5 -31.171875 C 75.039062 -31.785156 75.726562 -32.09375 76.5625 -32.09375 C 77.40625 -32.09375 78.132812 -31.785156 78.75 -31.171875 Z M 8.59375 -64.421875 C 8.519531 -63.960938 8.484375 -63.40625 8.484375 -62.75 C 8.484375 -62.101562 8.789062 -61.78125 9.40625 -61.78125 C 10.007812 -61.78125 10.617188 -61.816406 11.234375 -61.890625 C 12.378906 -61.972656 13.066406 -62.625 13.296875 -63.84375 C 15.285156 -69.570312 16.984375 -74.898438 18.390625 -79.828125 C 19.804688 -84.765625 20.820312 -88.875 21.4375 -92.15625 C 22.050781 -95.445312 22.128906 -97.585938 21.671875 -98.578125 C 21.515625 -99.035156 21.207031 -99.34375 20.75 -99.5 C 20.289062 -99.570312 19.90625 -99.457031 19.59375 -99.15625 C 18.53125 -98.007812 17.3125 -95.789062 15.9375 -92.5 C 14.5625 -89.21875 13.203125 -85.164062 11.859375 -80.34375 C 10.523438 -75.53125 9.4375 -70.222656 8.59375 -64.421875 Z M 7.109375 -46.53125 C 7.410156 -46.53125 7.8125 -46.953125 8.3125 -47.796875 C 8.8125 -48.640625 9.269531 -49.632812 9.6875 -50.78125 C 10.101562 -51.925781 10.40625 -52.992188 10.59375 -53.984375 C 10.789062 -54.984375 10.773438 -55.597656 10.546875 -55.828125 C 9.472656 -56.359375 8.476562 -56.28125 7.5625 -55.59375 C 7.257812 -55.289062 7.03125 -54.660156 6.875 -53.703125 C 6.71875 -52.742188 6.601562 -51.707031 6.53125 -50.59375 C 6.457031 -49.488281 6.476562 -48.535156 6.59375 -47.734375 C 6.707031 -46.929688 6.878906 -46.53125 7.109375 -46.53125 Z M 7.109375 -46.53125 "/></g></g></g><g fill="#6b21a8" fill-opacity="1"><g transform="translate(603.018637, 270.510543)"><g><path d="M 95.828125 -27.859375 C 96.359375 -27.242188 96.625 -26.515625 96.625 -25.671875 C 96.550781 -24.835938 96.207031 -24.148438 95.59375 -23.609375 C 95.363281 -23.378906 94.234375 -22.421875 92.203125 -20.734375 C 90.179688 -19.054688 87.507812 -17.070312 84.1875 -14.78125 C 80.863281 -12.488281 77.117188 -10.253906 72.953125 -8.078125 C 68.796875 -5.898438 64.40625 -4.160156 59.78125 -2.859375 C 55.15625 -1.566406 50.53125 -1.070312 45.90625 -1.375 C 41.28125 -1.675781 36.867188 -3.203125 32.671875 -5.953125 C 29.460938 -8.023438 26.898438 -10.703125 24.984375 -13.984375 C 24.453125 -14.898438 23.613281 -15.394531 22.46875 -15.46875 C 21.394531 -15.550781 20.550781 -15.132812 19.9375 -14.21875 C 18.257812 -11.695312 16.425781 -9.304688 14.4375 -7.046875 C 12.457031 -4.796875 10.429688 -2.984375 8.359375 -1.609375 C 6.296875 -0.234375 4.3125 0.492188 2.40625 0.578125 L 2.296875 0.578125 C 0.921875 0.492188 -0.359375 0.0507812 -1.546875 -0.75 C -2.734375 -1.550781 -3.59375 -2.597656 -4.125 -3.890625 C -6.414062 -9.628906 -6.070312 -15.207031 -3.09375 -20.625 C -0.570312 -25.90625 2.957031 -30.394531 7.5 -34.09375 C 12.050781 -37.800781 17.191406 -40.34375 22.921875 -41.71875 C 24.066406 -42.03125 25.023438 -41.765625 25.796875 -40.921875 C 26.628906 -40.078125 26.894531 -39.082031 26.59375 -37.9375 C 26.207031 -36.875 25.441406 -36.1875 24.296875 -35.875 C 19.484375 -34.726562 15.164062 -32.609375 11.34375 -29.515625 C 7.519531 -26.421875 4.539062 -22.617188 2.40625 -18.109375 C 0.269531 -14.441406 -0.109375 -10.617188 1.265625 -6.640625 C 1.722656 -5.878906 2.066406 -5.5 2.296875 -5.5 C 2.984375 -5.039062 4.015625 -5.519531 5.390625 -6.9375 C 6.765625 -8.351562 8.328125 -10.359375 10.078125 -12.953125 C 11.835938 -15.546875 13.578125 -18.410156 15.296875 -21.546875 C 17.015625 -24.679688 18.5625 -27.738281 19.9375 -30.71875 C 20.550781 -32.09375 21.625 -32.664062 23.15625 -32.4375 C 24.601562 -32.207031 25.441406 -31.367188 25.671875 -29.921875 C 25.671875 -29.835938 25.820312 -29.085938 26.125 -27.671875 C 26.4375 -26.265625 26.972656 -24.53125 27.734375 -22.46875 C 28.503906 -20.40625 29.554688 -18.320312 30.890625 -16.21875 C 32.222656 -14.113281 33.925781 -12.375 36 -11 C 39.507812 -8.632812 43.304688 -7.394531 47.390625 -7.28125 C 51.484375 -7.164062 55.59375 -7.773438 59.71875 -9.109375 C 63.84375 -10.453125 67.796875 -12.132812 71.578125 -14.15625 C 75.359375 -16.175781 78.738281 -18.253906 81.71875 -20.390625 C 84.707031 -22.535156 87.078125 -24.332031 88.828125 -25.78125 C 90.585938 -27.238281 91.503906 -28.003906 91.578125 -28.078125 C 92.191406 -28.617188 92.921875 -28.867188 93.765625 -28.828125 C 94.609375 -28.785156 95.296875 -28.460938 95.828125 -27.859375 Z M 95.828125 -27.859375 "/></g></g></g></svg>